<svg id="Layer_1" data-name="Layer 1" xmlns="http://www.w3.org/2000/svg" viewBox="0 0 498.15 244"><defs><style>.cls-1{isolation:isolate;}.cls-2{fill:#444;}.cls-3{fill:#fff;}</style></defs><title>contact_image</title><g id="Group_3" data-name="Group 3"><g id="tact" class="cls-1"><g class="cls-1"><path class="cls-2" d="M105.38,232.89v24.94H78.08V325q0,9.45,3.15,12.6t12.6,3.15q3.15,0,6-.27a51.11,51.11,0,0,0,5.51-.78v28.87a90.86,90.86,0,0,1-10.5,1.05q-5.77.25-11.29.26a108.44,108.44,0,0,1-16.4-1.18,38.87,38.87,0,0,1-13.65-4.59,24.32,24.32,0,0,1-9.32-9.72q-3.4-6.29-3.41-16.53V257.83H18.24V232.89H40.81V192.21H78.08v40.68Z" transform="translate(-0.93 -128)"/><path class="cls-2" d="M121.65,274.62q.78-13.11,6.56-21.78a44.63,44.63,0,0,1,14.7-13.91A64,64,0,0,1,163,231.45a113.85,113.85,0,0,1,22.44-2.23,152.44,152.44,0,0,1,20.73,1.44,63.59,63.59,0,0,1,19.16,5.64A37.84,37.84,0,0,1,239.5,248q5.5,7.49,5.51,19.82v70.6A141.8,141.8,0,0,0,246.06,356q1,8.4,3.67,12.6H211.94a53.83,53.83,0,0,1-1.71-6.43,54.55,54.55,0,0,1-.92-6.7,48.54,48.54,0,0,1-21,12.87A84.59,84.59,0,0,1,163.64,372a66.87,66.87,0,0,1-18.11-2.36,41.48,41.48,0,0,1-14.7-7.35,34.1,34.1,0,0,1-9.84-12.6,42.61,42.61,0,0,1-3.54-18.11q0-11.55,4.07-19A34,34,0,0,1,132,300.61a46.87,46.87,0,0,1,14.69-6.69,158,158,0,0,1,16.67-3.55q8.4-1.31,16.54-2.1a98.79,98.79,0,0,0,14.43-2.36,25.29,25.29,0,0,0,10-4.59q3.66-3,3.41-8.8,0-6-2-9.58a14.43,14.43,0,0,0-5.25-5.51,20.73,20.73,0,0,0-7.61-2.62,62,62,0,0,0-9.32-.66q-11,0-17.32,4.73t-7.35,15.74Zm86.09,27.56a16.53,16.53,0,0,1-5.91,3.28,59,59,0,0,1-7.61,2c-2.71.53-5.56,1-8.53,1.32s-5.95.78-8.92,1.31a65.47,65.47,0,0,0-8.27,2.1,24.64,24.64,0,0,0-7.09,3.54,16.86,16.86,0,0,0-4.85,5.64,18.14,18.14,0,0,0-1.84,8.67,17.43,17.43,0,0,0,1.84,8.39,14.07,14.07,0,0,0,5,5.39,21,21,0,0,0,7.35,2.75,46.5,46.5,0,0,0,8.66.79q11,0,17.06-3.68a24.61,24.61,0,0,0,8.93-8.79,28.18,28.18,0,0,0,3.54-10.37,70.68,70.68,0,0,0,.66-8.4Z" transform="translate(-0.93 -128)"/><path class="cls-2" d="M338.71,257.3q-8.93,0-15,4.07a32.28,32.28,0,0,0-9.85,10.5A45.31,45.31,0,0,0,308.52,286,76.93,76.93,0,0,0,307,301.4a73.73,73.73,0,0,0,1.57,15,46.38,46.38,0,0,0,5.12,13.78,29.29,29.29,0,0,0,9.58,10.1,26.27,26.27,0,0,0,14.7,3.94q13.38,0,20.6-7.48t9.06-20.08h36q-3.69,27-21,41.21T338.18,372a74.27,74.27,0,0,1-27.95-5.12,62,62,0,0,1-21.66-14.3,65.25,65.25,0,0,1-13.91-21.92,76,76,0,0,1-5-28,90.52,90.52,0,0,1,4.59-29.27,65.89,65.89,0,0,1,13.52-23.36,61.75,61.75,0,0,1,21.78-15.35q12.85-5.52,29.4-5.51a85.09,85.09,0,0,1,23.23,3.15A62.1,62.1,0,0,1,382.15,242a51.22,51.22,0,0,1,14.3,16q5.52,9.59,6.3,22.7H366.27Q362.58,257.3,338.71,257.3Z" transform="translate(-0.93 -128)"/><path class="cls-2" d="M499.07,232.89v24.94H471.78V325q0,9.45,3.15,12.6t12.59,3.15q3.15,0,6-.27a51.11,51.11,0,0,0,5.51-.78v28.87a90.86,90.86,0,0,1-10.5,1.05q-5.77.25-11.28.26a108.47,108.47,0,0,1-16.41-1.18,38.75,38.75,0,0,1-13.64-4.59,24.32,24.32,0,0,1-9.32-9.72q-3.42-6.29-3.41-16.53V257.83H411.93V232.89h22.58V192.21h37.27v40.68Z" transform="translate(-0.93 -128)"/></g></g><g id="Con" class="cls-1"><g class="cls-1"><path class="cls-3" d="M95.27,160.29q-6.93-6.53-18-6.53a38.07,38.07,0,0,0-20.39,5.36A45.2,45.2,0,0,0,42.59,173a63.62,63.62,0,0,0-8.3,18.93,80.38,80.38,0,0,0-2.73,20.39A49.05,49.05,0,0,0,33.42,226a34.16,34.16,0,0,0,5.65,11.41,27.11,27.11,0,0,0,9.76,7.9,32.25,32.25,0,0,0,14.34,2.93A31.41,31.41,0,0,0,75,246a33.92,33.92,0,0,0,9.85-6.05A35.56,35.56,0,0,0,92.05,231,32.31,32.31,0,0,0,96,220.49h30.64a110.21,110.21,0,0,1-11,24.78,64.86,64.86,0,0,1-14.25,16.49,50.33,50.33,0,0,1-17.56,9.17,74.22,74.22,0,0,1-21,2.83Q33.13,273.76,17,258T.93,212.3a97.81,97.81,0,0,1,5.26-32.2,83.05,83.05,0,0,1,15.13-26.83A71.36,71.36,0,0,1,77,128a73.19,73.19,0,0,1,22.44,3.32,50.15,50.15,0,0,1,17.85,9.85,43.77,43.77,0,0,1,11.61,16.2,54.63,54.63,0,0,1,3.9,22.34H102.2Q102.2,166.83,95.27,160.29Z" transform="translate(-0.93 -128)"/><path class="cls-3" d="M144.25,205.56a60.22,60.22,0,0,1,11.51-20A54.3,54.3,0,0,1,174,172a56.8,56.8,0,0,1,24.19-5,65.19,65.19,0,0,1,19,2.63,41.76,41.76,0,0,1,14.93,7.9,35.08,35.08,0,0,1,9.65,13.27,48,48,0,0,1,3.42,18.93,76,76,0,0,1-4,24.88,59.12,59.12,0,0,1-11.61,20.19,53.75,53.75,0,0,1-18.44,13.47,59.55,59.55,0,0,1-24.69,4.88q-21.06,0-33.66-10.83t-12.58-32.49A72.87,72.87,0,0,1,144.25,205.56Zm25,32.88a21.13,21.13,0,0,0,3.8,7.22,18.67,18.67,0,0,0,6.24,5,18.92,18.92,0,0,0,8.59,1.85,21.56,21.56,0,0,0,13.37-4.19,34.38,34.38,0,0,0,9.17-10.54A51.9,51.9,0,0,0,215.76,224a59.78,59.78,0,0,0,1.76-13.85q0-10.14-4.58-16.2t-15.71-6a21.19,21.19,0,0,0-13.17,4.19A33.49,33.49,0,0,0,175,202.54a52.45,52.45,0,0,0-5.27,13.56A59.15,59.15,0,0,0,168,229.86,28.69,28.69,0,0,0,169.23,238.44Z" transform="translate(-0.93 -128)"/><path class="cls-3" d="M299.28,169.76l-3.13,14.05h.4Q310,167,331.86,167q29.47,0,29.47,27.12a26.41,26.41,0,0,1-.39,4c-.26,1.63-.56,3.29-.88,5s-.65,3.28-1,4.78-.55,2.7-.68,3.61l-12.49,59.12H318.2l12.3-59.12c.26-1.57.61-3.64,1.07-6.25a37,37,0,0,0,.68-6.05,8.75,8.75,0,0,0-4.19-7.41,15.59,15.59,0,0,0-9.08-2.93,23.88,23.88,0,0,0-11,2.44,27.13,27.13,0,0,0-8.19,6.34,35,35,0,0,0-5.66,9A54.71,54.71,0,0,0,290.69,217l-11.32,53.66H251.86l20.88-100.88Z" transform="translate(-0.93 -128)"/></g></g></g></svg>