<svg id="Layer_1" data-name="Layer 1" xmlns="http://www.w3.org/2000/svg" viewBox="0 0 552 153.56"><defs><style>.cls-1{fill:#fff;}.cls-2{fill:#f0a868;}.cls-3{font-size:45.08px;fill:#353535;font-family:HelveticaNeue-Bold, Helvetica Neue;font-weight:700;}.cls-4{letter-spacing:-0.07em;}</style></defs><title>ethanmooney_logo</title><rect class="cls-1" width="552" height="152.4"/><path class="cls-2" d="M89.16,56A18.42,18.42,0,0,0,76.69,51.7q-8.1,0-12.55,4.59t-5.6,12.45H94.76Q94.19,60.37,89.16,56Z"/><path class="cls-2" d="M76.73.44A76.56,76.56,0,1,0,153.29,77,76.56,76.56,0,0,0,76.73.44Zm39.85,82.17H58q.49,12.09,8.41,17a21.35,21.35,0,0,0,11.6,3q7.17,0,11.66-3.69A17.5,17.5,0,0,0,94,93.37h21.46q-.84,7.16-7.79,14.54-10.8,11.72-30.25,11.72a43.8,43.8,0,0,1-28.32-9.89Q36.85,99.86,36.85,77.55q0-20.89,11.08-32T76.68,34.37a45.8,45.8,0,0,1,18.91,3.76A32.71,32.71,0,0,1,109.48,50a39.52,39.52,0,0,1,6.41,16.62A104,104,0,0,1,116.58,82.61Z"/><text class="cls-3" transform="translate(169.33 90.16)">ethanmoone<tspan class="cls-4" x="269.63" y="0">y</tspan><tspan x="289.7" y="0">.me</tspan></text></svg>