<svg id="Layer_1" data-name="Layer 1" xmlns="http://www.w3.org/2000/svg" viewBox="0 0 552 151.35"><defs><style>.cls-1{fill:#8ff2d7;}.cls-2{fill:#fff;}</style></defs><title>swablu_logo</title><g id="Group_9" data-name="Group 9"><g id="Group_2" data-name="Group 2"><path id="Rectangle_11" data-name="Rectangle 11" class="cls-1" d="M64.49-6h423C523.13-6,552,25.34,552,64V75.25c0,38.7-28.87,70.07-64.49,70.07h-423C28.87,145.32,0,114,0,75.25V64C0,25.34,28.87-6,64.49-6Z" transform="translate(0 6.03)"/><g id="swablu"><path class="cls-2" d="M107.34,91.31a9.3,9.3,0,0,0,2.59,3.1,10.64,10.64,0,0,0,3.62,1.78,15.54,15.54,0,0,0,4.28.57,13.77,13.77,0,0,0,3.32-.4,10.62,10.62,0,0,0,3.18-1.26,7.56,7.56,0,0,0,2.38-2.3,6.41,6.41,0,0,0,1-3.61c0-2.46-1.51-4.35-4.53-5.52A85.17,85.17,0,0,0,110.65,80a63.1,63.1,0,0,1-6.4-1.89,21.17,21.17,0,0,1-5.49-2.87,13,13,0,0,1-5.46-11.1,19.06,19.06,0,0,1,2.06-9.42,15.7,15.7,0,0,1,5.43-5.8,22.62,22.62,0,0,1,7.6-3,43.67,43.67,0,0,1,8.68-.85,39.77,39.77,0,0,1,8.62.92,22,22,0,0,1,7.46,3.09,18.19,18.19,0,0,1,5.42,5.81A20.63,20.63,0,0,1,141.16,64H127c-.22-3.13-1.31-5.26-3.28-6.37a14,14,0,0,0-7-1.68,22.44,22.44,0,0,0-2.71.19,8.36,8.36,0,0,0-2.71.75,5.57,5.57,0,0,0-2.06,1.65,5.21,5.21,0,0,0,.63,6.52,11.13,11.13,0,0,0,3.86,2.24,44.77,44.77,0,0,0,5.43,1.55c2,.47,4.12,1,6.24,1.5a58.3,58.3,0,0,1,6.4,2,20.53,20.53,0,0,1,5.56,3,14.33,14.33,0,0,1,3.89,4.66,14.84,14.84,0,0,1,1.47,7,18.56,18.56,0,0,1-7.82,16.22,22.16,22.16,0,0,1-8,3.39,43.45,43.45,0,0,1-9.16,1,41.62,41.62,0,0,1-9.3-1,23.52,23.52,0,0,1-8.1-3.55,18.87,18.87,0,0,1-5.82-6.37A21.31,21.31,0,0,1,92,86.77h14.28A9.57,9.57,0,0,0,107.34,91.31Z" transform="translate(0 6.03)"/><path class="cls-2" d="M198.55,106.07,188.83,66.2h-.22l-9.31,39.87H163.76L146.42,46.66h15.86L172.33,87h.21l9.1-40.3h14.59l9.3,40.2h.22l10-40.2h15.44L214,106.07Z" transform="translate(0 6.03)"/><path class="cls-2" d="M236.94,64.93a20.27,20.27,0,0,1,2.65-9.54,18.71,18.71,0,0,1,5.92-6.08,24.45,24.45,0,0,1,8.09-3.26,42,42,0,0,1,9-1,55,55,0,0,1,8.4.67,24.19,24.19,0,0,1,7.71,2.45,15.5,15.5,0,0,1,5.72,5.12A15.27,15.27,0,0,1,286.65,62V92.86a65.82,65.82,0,0,0,.42,7.69,14.8,14.8,0,0,0,1.48,5.52H273.29a22.59,22.59,0,0,1-.69-2.81,26.41,26.41,0,0,1-.37-3,19.37,19.37,0,0,1-8.46,5.63,31.6,31.6,0,0,1-9.95,1.61,24.78,24.78,0,0,1-7.3-1,16,16,0,0,1-5.92-3.26,14.43,14.43,0,0,1-4-5.52,19.9,19.9,0,0,1-1.34-8,18.56,18.56,0,0,1,1.68-8.24,14.53,14.53,0,0,1,4.23-5.22,18.32,18.32,0,0,1,5.91-3,57.61,57.61,0,0,1,6.72-1.61q3.39-.56,6.67-.92a37.29,37.29,0,0,0,5.82-1.09,9.85,9.85,0,0,0,4-2A4.66,4.66,0,0,0,271.67,64a9.29,9.29,0,0,0-.8-4.2,6.1,6.1,0,0,0-2.12-2.43,7.71,7.71,0,0,0-3.06-1.09,22.52,22.52,0,0,0-3.76-.29,10.65,10.65,0,0,0-7,2.08q-2.53,2.06-3,6.87ZM271.63,77a6.39,6.39,0,0,1-2.38,1.48,21.76,21.76,0,0,1-3.06.87c-1.1.22-2.25.43-3.44.57s-2.4.36-3.62.57a24.2,24.2,0,0,0-3.33.93A10,10,0,0,0,252.94,83a7.34,7.34,0,0,0-1.94,2.4,8.34,8.34,0,0,0-.74,3.79,8.16,8.16,0,0,0,.74,3.69,5.85,5.85,0,0,0,2,2.34A8.16,8.16,0,0,0,256,96.39a17.17,17.17,0,0,0,3.5.35,12.51,12.51,0,0,0,6.87-1.61A10.4,10.4,0,0,0,270,91.28a13.24,13.24,0,0,0,1.43-4.54,34.63,34.63,0,0,0,.26-3.67Z" transform="translate(0 6.03)"/><path class="cls-2" d="M313.3,24V53.92h.21A16.4,16.4,0,0,1,321,47.19,23.66,23.66,0,0,1,330.79,45a20.1,20.1,0,0,1,15.37,7.46,29.31,29.31,0,0,1,5.24,9.72,43.71,43.71,0,0,1,2,14.12,43.69,43.69,0,0,1-2,14.07,29.31,29.31,0,0,1-5.24,9.72,20.09,20.09,0,0,1-15.37,7.46A26.75,26.75,0,0,1,320,105.5a14.16,14.16,0,0,1-7.24-7h-.21v7.6H298.28V24Zm24.32,45.22a20,20,0,0,0-2.32-6.1c-3.26-5.7-10.1-7.55-15.44-4.18a12.31,12.31,0,0,0-4.06,4.18,20.12,20.12,0,0,0-2.33,6.08,34.58,34.58,0,0,0-.74,7.25,33.45,33.45,0,0,0,.74,7.13,20.18,20.18,0,0,0,2.33,6.08,12.39,12.39,0,0,0,4,4.2,11.42,11.42,0,0,0,11.47,0,12.68,12.68,0,0,0,4-4.2,20.18,20.18,0,0,0,2.33-6.08,35.89,35.89,0,0,0,0-14.38Z" transform="translate(0 6.03)"/><path class="cls-2" d="M378.34,24v82.05h-15V24Z" transform="translate(0 6.03)"/><path class="cls-2" d="M427.19,106.07V97.79h-.31a17.52,17.52,0,0,1-7.4,7.48,20.43,20.43,0,0,1-9.31,2.29,24,24,0,0,1-9.89-1.72,14.32,14.32,0,0,1-6.08-4.91,20,20,0,0,1-3.12-7.69,52.26,52.26,0,0,1-.91-10.07V46.66h15V80.22q0,7.36,2.11,11c1.41,2.4,3.92,3.6,7.51,3.6q6.13,0,8.89-3.92t2.71-13V46.66H441.5v59.41Z" transform="translate(0 6.03)"/></g></g></g></svg>